<svg width="170" height="65" viewBox="0 0 170 65" fill="none" xmlns="http://www.w3.org/2000/svg">
<g clip-path="url(#clip0_101_2)">
<path fill-rule="evenodd" clip-rule="evenodd" d="M41.0971 13.005C41.1586 12.9747 41.2132 12.932 41.2575 12.8797C41.3018 12.8274 41.3349 12.7665 41.3547 12.7009C41.3745 12.6352 41.3805 12.5662 41.3725 12.4981C41.3645 12.43 41.3426 12.3643 41.3081 12.305C39.5616 8.0838 37.2202 4.13412 34.3551 0.576015C34.1583 0.330902 33.8895 0.153816 33.5866 0.0697592C33.2837 -0.0142979 32.962 -0.00106903 32.667 0.10757C32.372 0.21621 32.1187 0.414755 31.9426 0.675197C31.7666 0.935639 31.6769 1.24481 31.6861 1.55902C31.6861 16.379 26.2081 26.001 16.9371 32.959C16.8671 32.959 16.8671 33.029 16.8671 33.099C17.3618 39.4665 18.5852 45.7563 20.5131 51.845C20.5264 51.8874 20.5549 51.9233 20.5931 51.9459C20.6313 51.9685 20.6765 51.9762 20.72 51.9676C20.7635 51.9589 20.8023 51.9344 20.8289 51.8989C20.8555 51.8634 20.868 51.8192 20.8641 51.775C20.3756 44.0819 22.0025 36.4018 25.5683 29.5675C29.134 22.7331 34.5026 17.0053 41.0921 13.005H41.0971ZM44.0471 23.47C38.1673 26.2284 33.1323 30.5094 29.4644 35.8692C25.7965 41.229 23.6292 47.4724 23.1871 53.952H22.7661C21.8412 46.3124 23.1142 38.5674 26.4357 31.6258C29.7573 24.6842 34.9897 18.8338 41.5191 14.761C41.5888 14.708 41.6704 14.6729 41.7567 14.6586C41.8431 14.6443 41.9317 14.6513 42.0148 14.679C42.0979 14.7066 42.1729 14.7542 42.2334 14.8174C42.2939 14.8807 42.3381 14.9578 42.3621 15.042C43.2316 17.5834 43.8895 20.1922 44.3291 22.842C44.3629 22.9004 44.3825 22.966 44.3861 23.0334C44.3897 23.1008 44.3773 23.1681 44.3499 23.2297C44.3225 23.2914 44.2808 23.3457 44.2284 23.3882C44.1759 23.4306 44.1141 23.4601 44.0481 23.474L44.0471 23.47ZM15.0401 34.217C15.1101 34.147 15.2511 34.217 15.3211 34.358C15.8501 40.2693 17.0039 46.1079 18.7631 51.776C18.8331 51.916 18.6221 52.057 18.4821 51.987C13.3735 48.512 7.69068 45.9678 1.69606 44.472C-0.691937 43.98 -0.340912 41.522 1.41509 41.03C5.55909 39.274 11.8101 36.395 15.0411 34.217H15.0401ZM43.9071 36.043C44.0017 36.0099 44.1032 36.0016 44.2019 36.0189C44.3006 36.0363 44.3932 36.0788 44.4708 36.1422C44.5484 36.2057 44.6085 36.288 44.6451 36.3813C44.6817 36.4746 44.6938 36.5757 44.6801 36.675C44.4138 38.707 44.0386 40.7233 43.5561 42.715C43.5258 42.8143 43.4716 42.9047 43.3982 42.9781C43.3247 43.0515 43.2344 43.1057 43.1351 43.136C42.1343 43.3517 41.1488 43.6334 40.1851 43.979C37.1433 45.0965 34.3907 46.8816 32.1299 49.2032C29.8691 51.5248 28.1575 54.3237 27.1211 57.394C26.7701 57.324 26.9101 57.324 26.5591 57.254C27.311 52.4981 29.3137 48.0275 32.3621 44.3004C35.4104 40.5732 39.3948 37.7235 43.9071 36.043V36.043ZM41.9401 45.103C42.0441 45.0762 42.1534 45.0784 42.2562 45.1092C42.3591 45.1401 42.4516 45.1985 42.5236 45.278C42.5957 45.3576 42.6447 45.4554 42.6652 45.5608C42.6857 45.6662 42.677 45.7752 42.6401 45.876C40.4303 52.6158 36.7883 58.7975 31.9641 63.997C31.802 64.1767 31.5993 64.3151 31.373 64.4007C31.1467 64.4863 30.9032 64.5166 30.6627 64.4891C30.4223 64.4616 30.192 64.3771 29.9908 64.2427C29.7896 64.1082 29.6234 63.9277 29.5061 63.716C29.0141 62.803 28.3821 61.89 27.8201 61.047C28.4582 57.5754 29.9837 54.328 32.2481 51.6204C34.5126 48.9127 37.439 46.837 40.7431 45.595C41.1281 45.4012 41.5273 45.2367 41.9371 45.103H41.9401ZM44.8201 25.859C44.9611 27.474 45.1011 29.159 45.1011 30.846C45.1011 31.759 45.1011 32.672 45.0311 33.585C45.0311 33.796 44.8201 34.006 44.6101 34.147C44.1891 34.287 43.7671 34.428 43.4161 34.568C38.8555 36.2443 34.7945 39.0501 31.6131 42.7227C28.4317 46.3954 26.2338 50.8149 25.2251 55.568C25.1038 55.5789 24.9819 55.5546 24.8741 55.498C25.0478 49.2206 26.9233 43.1081 30.3003 37.8136C33.6774 32.5191 38.4291 28.2412 44.0481 25.437C44.1245 25.3931 44.2109 25.3695 44.2991 25.3686C44.3872 25.3676 44.4742 25.3893 44.5515 25.4315C44.6289 25.4738 44.6941 25.5352 44.741 25.6098C44.7878 25.6845 44.8147 25.77 44.8191 25.858L44.8201 25.859Z" fill="#F56E28"/>
<path fill-rule="evenodd" clip-rule="evenodd" d="M144.905 40.046C144.885 39.5299 144.97 39.0151 145.156 38.5332C145.342 38.0514 145.624 37.6127 145.986 37.2442C146.348 36.8758 146.782 36.5853 147.26 36.3907C147.739 36.1962 148.252 36.1017 148.768 36.113C149.583 36.111 150.375 36.3832 151.016 36.886L145.046 41.17C144.969 40.7997 144.922 40.4238 144.906 40.046H144.905ZM111.473 43.979C110.958 43.9845 110.448 43.8859 109.972 43.6893C109.496 43.4927 109.065 43.2021 108.704 42.8348C108.344 42.4675 108.061 42.0312 107.873 41.552C107.685 41.0728 107.595 40.5606 107.61 40.046C107.578 39.5279 107.651 39.0086 107.827 38.5202C108.003 38.0317 108.277 37.5845 108.633 37.2061C108.988 36.8277 109.417 36.5261 109.893 36.3199C110.37 36.1137 110.884 36.0074 111.403 36.0074C111.922 36.0074 112.435 36.1137 112.912 36.3199C113.388 36.5261 113.817 36.8277 114.173 37.2061C114.528 37.5845 114.802 38.0317 114.978 38.5202C115.154 39.0086 115.228 39.5279 115.195 40.046C115.237 40.5553 115.171 41.0678 115.002 41.5499C114.833 42.0321 114.564 42.4731 114.212 42.8443C113.861 43.2154 113.435 43.5083 112.963 43.7038C112.491 43.8994 111.983 43.9931 111.472 43.979H111.473ZM115.547 48.544H119.129C119.194 48.5457 119.259 48.534 119.319 48.5099C119.38 48.4857 119.435 48.4496 119.481 48.4036C119.527 48.3575 119.563 48.3027 119.587 48.2422C119.611 48.1818 119.623 48.1171 119.621 48.052V31.969C119.623 31.9039 119.611 31.8392 119.587 31.7788C119.563 31.7183 119.527 31.6635 119.481 31.6174C119.435 31.5714 119.38 31.5352 119.319 31.5111C119.259 31.4869 119.194 31.4753 119.129 31.477H115.547C115.482 31.4753 115.417 31.4869 115.357 31.5111C115.296 31.5352 115.242 31.5714 115.196 31.6174C115.15 31.6635 115.113 31.7183 115.089 31.7788C115.065 31.8392 115.053 31.9039 115.055 31.969V32.952C113.935 32.0078 112.52 31.4859 111.055 31.477C108.856 31.5665 106.779 32.5134 105.27 34.115C103.76 35.7166 102.938 37.8455 102.978 40.046C102.913 42.2533 103.728 44.396 105.242 46.0029C106.757 47.6098 108.848 48.5494 111.055 48.615C112.53 48.615 114.355 48.053 115.055 47.07V48.053C115.053 48.1181 115.065 48.1828 115.089 48.2432C115.113 48.3036 115.15 48.3586 115.196 48.4046C115.242 48.4506 115.296 48.4868 115.357 48.5109C115.417 48.535 115.482 48.5466 115.547 48.545V48.544ZM94.8281 41.591C95.8821 41.732 96.3031 42.223 96.3031 42.855C96.3064 43.0157 96.2747 43.1753 96.2104 43.3226C96.146 43.47 96.0504 43.6016 95.9303 43.7084C95.8101 43.8153 95.6682 43.8948 95.5144 43.9415C95.3605 43.9882 95.1984 44.001 95.0391 43.979C94.5039 44 93.9795 43.8251 93.5641 43.487C93.4729 43.4187 93.3621 43.3817 93.2481 43.3817C93.1342 43.3817 93.0233 43.4187 92.9321 43.487L89.8421 45.735C89.7776 45.7678 89.7236 45.8182 89.6863 45.8802C89.6489 45.9423 89.6298 46.0136 89.6311 46.086C89.646 46.2351 89.6942 46.379 89.7721 46.507C90.452 47.1861 91.2648 47.7175 92.1596 48.0681C93.0544 48.4186 94.0119 48.5806 94.9721 48.544C98.4841 48.544 101.293 46.296 101.293 42.925C101.293 39.554 98.9751 38.009 95.9551 37.587C94.6211 37.447 94.1991 37.095 94.1991 36.533C94.1991 36.041 94.5501 35.69 95.1821 35.69C95.6125 35.7115 96.0274 35.8578 96.3761 36.111C96.4673 36.1793 96.5782 36.2162 96.6921 36.2162C96.8061 36.2162 96.9169 36.1793 97.0081 36.111L99.5371 34.285C99.6016 34.2522 99.6557 34.2018 99.693 34.1398C99.7303 34.0777 99.7494 34.0064 99.7481 33.934C99.7575 33.8577 99.7496 33.7804 99.7252 33.7076C99.7008 33.6347 99.6605 33.5683 99.6071 33.513C99.0648 32.8284 98.369 32.2809 97.576 31.9149C96.783 31.5489 95.9149 31.3746 95.0421 31.406C92.5841 31.406 89.6341 33.513 89.6341 36.393C89.7741 39.202 91.8811 41.169 94.8341 41.593L94.8281 41.591ZM87.1671 31.477H83.5851C83.5201 31.4753 83.4553 31.4869 83.3949 31.5111C83.3344 31.5352 83.2796 31.5714 83.2336 31.6174C83.1875 31.6635 83.1514 31.7183 83.1272 31.7788C83.1031 31.8392 83.0915 31.9039 83.0931 31.969V48.052C83.0915 48.1171 83.1031 48.1818 83.1272 48.2422C83.1514 48.3027 83.1875 48.3575 83.2336 48.4036C83.2796 48.4496 83.3344 48.4857 83.3949 48.5099C83.4553 48.534 83.5201 48.5457 83.5851 48.544H87.1671C87.2322 48.5457 87.2969 48.534 87.3573 48.5099C87.4178 48.4857 87.4726 48.4496 87.5187 48.4036C87.5647 48.3575 87.6009 48.3027 87.625 48.2422C87.6492 48.1818 87.6607 48.1171 87.6591 48.052V31.969C87.7291 31.688 87.4481 31.477 87.1671 31.477ZM85.4111 24.032C85.9528 24.032 86.4824 24.1926 86.9328 24.4936C87.3833 24.7946 87.7343 25.2224 87.9416 25.7228C88.1489 26.2233 88.2032 26.774 88.0975 27.3054C87.9918 27.8367 87.7309 28.3247 87.3479 28.7078C86.9648 29.0908 86.4768 29.3517 85.9455 29.4574C85.4142 29.5631 84.8634 29.5088 84.363 29.3015C83.8625 29.0942 83.4347 28.7431 83.1337 28.2927C82.8327 27.8423 82.6721 27.3127 82.6721 26.771C82.6732 26.0449 82.9621 25.3488 83.4755 24.8354C83.9889 24.322 84.685 24.033 85.4111 24.032V24.032ZM61.6011 31.407C60.4634 31.4277 59.3504 31.7422 58.3701 32.32C58.2937 32.3647 58.207 32.3889 58.1185 32.3903C58.0299 32.3916 57.9426 32.37 57.8648 32.3277C57.787 32.2853 57.7215 32.2236 57.6746 32.1485C57.6277 32.0734 57.6011 31.9874 57.5972 31.899V24.599C57.5981 24.5007 57.5714 24.4042 57.5202 24.3203C57.4689 24.2365 57.3952 24.1688 57.3073 24.1249C57.2194 24.081 57.1209 24.0627 57.0231 24.0721C56.9252 24.0815 56.8321 24.1182 56.7541 24.178L53.1721 26.778C53.1051 26.8254 53.0508 26.8887 53.014 26.9621C52.9772 27.0355 52.959 27.1169 52.9611 27.199V48.129C52.9595 48.1941 52.9711 48.2588 52.9952 48.3192C53.0194 48.3797 53.0555 48.4345 53.1015 48.4806C53.1476 48.5266 53.2025 48.5628 53.2629 48.5869C53.3234 48.6111 53.388 48.6227 53.4531 48.621H57.0351C57.1002 48.6227 57.1649 48.6111 57.2253 48.5869C57.2858 48.5628 57.3407 48.5266 57.3867 48.4806C57.4327 48.4345 57.4689 48.3797 57.493 48.3192C57.5172 48.2588 57.5288 48.1941 57.5271 48.129V47.075C58.6039 48.0984 60.042 48.6539 61.5271 48.62C63.7085 48.4804 65.7554 47.5176 67.254 45.9265C68.7527 44.3353 69.5912 42.2345 69.6001 40.0487C69.609 37.8629 68.7876 35.7553 67.3019 34.152C65.8163 32.5487 63.7773 31.5694 61.5971 31.412L61.6011 31.407ZM61.1801 43.979C60.6709 43.9872 60.1656 43.8894 59.6961 43.6919C59.2267 43.4943 58.8035 43.2013 58.4534 42.8315C58.1033 42.4616 57.834 42.023 57.6625 41.5435C57.4909 41.064 57.421 40.554 57.4571 40.046C57.4271 39.5394 57.5011 39.032 57.6748 38.5551C57.8486 38.0782 58.1182 37.642 58.4671 37.2734C58.816 36.9049 59.2368 36.6117 59.7034 36.4121C60.17 36.2125 60.6726 36.1107 61.1801 36.113C62.2078 36.1362 63.1857 36.5607 63.9043 37.2958C64.623 38.0308 65.0254 39.018 65.0254 40.046C65.0254 41.074 64.623 42.0611 63.9043 42.7962C63.1857 43.5313 62.2078 43.9558 61.1801 43.979V43.979ZM138.228 40.046C138.228 35.34 135.138 31.477 130.643 31.477C129.168 31.477 127.201 31.898 126.359 32.952V31.969C126.361 31.9039 126.349 31.8392 126.325 31.7788C126.301 31.7183 126.265 31.6635 126.219 31.6174C126.173 31.5714 126.118 31.5352 126.057 31.5111C125.997 31.4869 125.932 31.4753 125.867 31.477H122.285C122.22 31.4753 122.155 31.4869 122.095 31.5111C122.034 31.5352 121.98 31.5714 121.934 31.6174C121.888 31.6635 121.851 31.7183 121.827 31.7788C121.803 31.8392 121.791 31.9039 121.793 31.969V48.052C121.791 48.1171 121.803 48.1818 121.827 48.2422C121.851 48.3027 121.888 48.3575 121.934 48.4036C121.98 48.4496 122.034 48.4857 122.095 48.5099C122.155 48.534 122.22 48.5457 122.285 48.544H125.867C125.932 48.5457 125.997 48.534 126.057 48.5099C126.118 48.4857 126.173 48.4496 126.219 48.4036C126.265 48.3575 126.301 48.3027 126.325 48.2422C126.349 48.1818 126.361 48.1171 126.359 48.052V40.045C126.334 39.5218 126.418 38.999 126.607 38.5103C126.795 38.0216 127.084 37.5778 127.455 37.2074C127.825 36.837 128.269 36.5481 128.757 36.3595C129.246 36.1708 129.769 36.0865 130.292 36.112C132.192 36.112 133.734 37.446 133.734 40.045V48.052C133.732 48.1171 133.744 48.1818 133.768 48.2422C133.792 48.3027 133.829 48.3575 133.875 48.4036C133.921 48.4496 133.975 48.4857 134.036 48.5099C134.096 48.534 134.161 48.5457 134.226 48.544H137.738C137.803 48.5457 137.868 48.534 137.928 48.5099C137.989 48.4857 138.044 48.4496 138.09 48.4036C138.136 48.3575 138.172 48.3027 138.196 48.2422C138.22 48.1818 138.232 48.1171 138.23 48.052V40.045L138.228 40.046ZM169.834 35.2V31.969C169.836 31.9039 169.824 31.8392 169.8 31.7788C169.776 31.7183 169.74 31.6635 169.694 31.6174C169.648 31.5714 169.593 31.5352 169.532 31.5111C169.472 31.4869 169.407 31.4753 169.342 31.477H165.971V27.403C165.961 27.3061 165.93 27.2124 165.882 27.1278C165.833 27.0432 165.768 26.9693 165.69 26.911C165.599 26.8706 165.498 26.8558 165.399 26.8681C165.3 26.8804 165.207 26.9194 165.128 26.981L161.546 29.581C161.479 29.6284 161.425 29.6917 161.388 29.7651C161.351 29.8385 161.333 29.9199 161.335 30.002V31.477H159.368C159.303 31.4753 159.238 31.4869 159.178 31.5111C159.117 31.5352 159.063 31.5714 159.017 31.6174C158.971 31.6635 158.934 31.7183 158.91 31.7788C158.886 31.8392 158.874 31.9039 158.876 31.969V35.2C158.874 35.265 158.886 35.3298 158.91 35.3902C158.934 35.4506 158.971 35.5056 159.017 35.5516C159.063 35.5976 159.117 35.6338 159.178 35.6579C159.238 35.682 159.303 35.6936 159.368 35.692H161.335V41.451C161.335 45.525 164.566 48.404 169.201 48.615C169.331 48.6125 169.456 48.5627 169.552 48.475C169.693 48.405 169.693 48.264 169.693 48.124V44.612C169.695 44.5469 169.683 44.4822 169.659 44.4218C169.635 44.3613 169.599 44.3065 169.553 44.2604C169.507 44.2144 169.452 44.1782 169.391 44.1541C169.331 44.1299 169.266 44.1183 169.201 44.12C167.301 43.979 165.901 43.137 165.901 41.451V35.832H169.272C169.623 35.691 169.834 35.481 169.834 35.2V35.2ZM80.5671 31.477H79.9351C79.2589 31.4679 78.5877 31.5937 77.9607 31.847C77.3336 32.1002 76.7633 32.4759 76.2831 32.952V32.252C76.2876 32.1518 76.2637 32.0524 76.2139 31.9653C76.1642 31.8782 76.0907 31.807 76.0021 31.76C75.9109 31.7196 75.8104 31.7048 75.7114 31.7171C75.6124 31.7294 75.5186 31.7684 75.4401 31.83L71.8581 34.43C71.7911 34.4774 71.7367 34.5407 71.6999 34.6141C71.6631 34.6875 71.645 34.7689 71.6471 34.851V48.051C71.6455 48.1161 71.6571 48.1808 71.6812 48.2412C71.7053 48.3016 71.7416 48.3565 71.7876 48.4026C71.8336 48.4486 71.8885 48.4848 71.9489 48.5089C72.0093 48.5331 72.0741 48.5446 72.1391 48.543H75.7211C75.7862 48.5446 75.8509 48.5331 75.9114 48.5089C75.9718 48.4848 76.0267 48.4486 76.0727 48.4026C76.1187 48.3565 76.1549 48.3016 76.179 48.2412C76.2031 48.1808 76.2148 48.1161 76.2131 48.051V40.044C76.2131 37.444 77.7581 36.111 79.5131 36.111C79.7959 36.0993 80.0791 36.1229 80.3561 36.181C80.4307 36.1966 80.5078 36.1958 80.5821 36.1786C80.6563 36.1614 80.7259 36.1282 80.7861 36.0814C80.8462 36.0346 80.8955 35.9752 80.9303 35.9074C80.9652 35.8397 80.985 35.7651 80.9881 35.689V32.037C81.0103 31.9715 81.0161 31.9016 81.0052 31.8334C80.9943 31.7651 80.9669 31.7006 80.9255 31.6452C80.884 31.5899 80.8297 31.5455 80.7673 31.5158C80.7049 31.4862 80.6362 31.4722 80.5671 31.475V31.477ZM152.347 42.715C151.93 43.1445 151.426 43.4796 150.869 43.6977C150.311 43.9157 149.714 44.0117 149.116 43.979C148.661 44.0179 148.203 43.9455 147.782 43.768L156.632 37.447C156.73 37.3775 156.803 37.2789 156.84 37.1653C156.878 37.0518 156.879 36.9291 156.843 36.815C156.19 35.2107 155.072 33.8384 153.632 32.8747C152.193 31.911 150.498 31.3998 148.766 31.407C146.503 31.4184 144.337 32.327 142.744 33.9335C141.15 35.54 140.259 37.7132 140.266 39.976C140.287 41.1251 140.534 42.2587 140.994 43.312C141.454 44.3652 142.117 45.3172 142.946 46.1134C143.775 46.9095 144.753 47.5342 145.824 47.9515C146.894 48.3688 148.037 48.5704 149.186 48.545C150.478 48.5775 151.762 48.3307 152.95 47.8216C154.138 47.3125 155.202 46.553 156.069 45.595C156.157 45.472 156.207 45.3253 156.21 45.174C156.211 45.1016 156.192 45.0303 156.155 44.9682C156.118 44.9061 156.064 44.8558 155.999 44.823L153.119 42.646C153.001 42.5706 152.862 42.5364 152.723 42.5489C152.584 42.5614 152.453 42.6198 152.35 42.715H152.347Z" fill="white"/>
<path fill-rule="evenodd" clip-rule="evenodd" d="M55.7062 59.434H53.3882C53.3414 59.4367 53.2945 59.4295 53.2507 59.4129C53.2069 59.3962 53.167 59.3705 53.1339 59.3373C53.1007 59.3041 53.0749 59.2643 53.0583 59.2205C53.0416 59.1767 53.0344 59.1298 53.0372 59.083V53.815C53.0431 53.7238 53.082 53.6379 53.1466 53.5733C53.2112 53.5087 53.2971 53.4698 53.3882 53.464C53.435 53.4612 53.4819 53.4684 53.5257 53.485C53.5696 53.5017 53.6094 53.5275 53.6425 53.5606C53.6757 53.5938 53.7014 53.6336 53.7181 53.6774C53.7348 53.7213 53.742 53.7682 53.7392 53.815V58.802H55.7762C55.9162 58.802 56.1272 58.943 56.1272 59.083C56.1063 59.1801 56.0534 59.2674 55.9771 59.331C55.9008 59.3946 55.8055 59.4308 55.7062 59.434V59.434ZM169.487 59.434H167.31C167.029 59.434 166.818 59.364 166.818 59.013V53.956C166.815 53.9 166.824 53.844 166.844 53.7915C166.863 53.7391 166.894 53.6914 166.934 53.6516C166.973 53.6118 167.021 53.5808 167.073 53.5605C167.125 53.5403 167.181 53.5312 167.237 53.534H169.485C169.533 53.5303 169.582 53.5367 169.627 53.5526C169.673 53.5685 169.715 53.5937 169.75 53.6266C169.786 53.6594 169.814 53.6993 169.833 53.7436C169.853 53.7879 169.863 53.8356 169.863 53.884C169.863 53.9323 169.853 53.9801 169.833 54.0244C169.814 54.0687 169.786 54.1085 169.75 54.1414C169.715 54.1742 169.673 54.1994 169.627 54.2153C169.582 54.2313 169.533 54.2376 169.485 54.234H167.518V56.201H169.344C169.435 56.2068 169.521 56.2457 169.586 56.3103C169.65 56.3749 169.689 56.4608 169.695 56.552C169.698 56.5988 169.691 56.6456 169.674 56.6895C169.657 56.7333 169.632 56.7731 169.599 56.8063C169.565 56.8395 169.526 56.8652 169.482 56.8819C169.438 56.8986 169.391 56.9057 169.344 56.903H167.518V58.87H169.555C169.696 58.87 169.906 59.011 169.906 59.151C169.87 59.2328 169.811 59.3026 169.736 59.3524C169.662 59.4021 169.575 59.4297 169.485 59.432L169.487 59.434ZM167.731 52.972L167.59 53.042C167.535 53.0389 167.483 53.0156 167.444 52.9767C167.406 52.9378 167.382 52.8859 167.379 52.831C167.379 52.761 167.449 52.69 167.52 52.55L168.152 51.988C168.222 51.988 168.292 51.918 168.363 51.918C168.401 51.9132 168.44 51.917 168.477 51.9291C168.513 51.9412 168.546 51.9613 168.574 51.988L169.206 52.55C169.249 52.5834 169.284 52.626 169.308 52.6747C169.332 52.7233 169.345 52.7767 169.346 52.831C169.35 52.8596 169.348 52.8889 169.339 52.9164C169.33 52.944 169.314 52.9689 169.294 52.9894C169.273 53.0099 169.248 53.0254 169.221 53.0345C169.193 53.0436 169.164 53.0462 169.135 53.042C169.065 53.042 168.995 53.042 168.995 52.972L168.363 52.48L167.731 52.972ZM161.691 55.572C161.691 54.308 162.253 53.465 163.591 53.465C164.364 53.465 165.066 53.816 165.066 54.165C165.062 54.238 165.031 54.3069 164.979 54.3587C164.927 54.4104 164.858 54.4415 164.785 54.446C164.644 54.446 164.644 54.376 164.504 54.305C164.253 54.1391 163.962 54.0422 163.661 54.024C162.748 54.024 162.397 54.586 162.397 55.569V57.325C162.397 58.238 162.678 58.87 163.661 58.87C163.967 58.885 164.268 58.7847 164.504 58.589C164.644 58.519 164.715 58.449 164.785 58.449C164.858 58.4535 164.927 58.4845 164.979 58.5363C165.031 58.588 165.062 58.6569 165.066 58.73C165.066 59.151 164.366 59.43 163.591 59.43C162.327 59.43 161.691 58.587 161.691 57.323V55.567V55.572ZM156.283 57.328V55.572C156.248 55.3045 156.271 55.0325 156.351 54.7748C156.431 54.5172 156.566 54.28 156.746 54.0796C156.927 53.8792 157.149 53.7205 157.397 53.6143C157.645 53.5082 157.914 53.4573 158.183 53.465C159.583 53.465 160.083 54.448 160.083 55.572V57.328C160.118 57.5953 160.094 57.867 160.014 58.1244C159.934 58.3818 159.799 58.6187 159.618 58.8189C159.438 59.0191 159.216 59.1779 158.968 59.2842C158.721 59.3906 158.453 59.442 158.183 59.435C156.919 59.505 156.283 58.522 156.283 57.328ZM156.915 55.572V57.328C156.915 58.171 157.336 58.803 158.179 58.803C159.022 58.803 159.443 58.171 159.443 57.328V55.572C159.443 54.659 159.092 54.097 158.179 54.097C157.266 54.097 156.915 54.729 156.915 55.572ZM152.915 58.311L154.315 53.675C154.345 53.6024 154.393 53.5386 154.455 53.4894C154.516 53.4403 154.589 53.4075 154.666 53.394C154.713 53.3912 154.76 53.3984 154.804 53.415C154.848 53.4317 154.887 53.4575 154.921 53.4906C154.954 53.5238 154.979 53.5636 154.996 53.6075C155.013 53.6513 155.02 53.6981 155.017 53.745V53.886L153.402 59.013C153.332 59.2936 153.192 59.434 152.981 59.434C152.77 59.434 152.63 59.223 152.56 59.013L150.945 53.886V53.745C150.942 53.6981 150.95 53.6513 150.966 53.6075C150.983 53.5636 151.009 53.5238 151.042 53.4906C151.075 53.4575 151.115 53.4317 151.159 53.415C151.202 53.3984 151.249 53.3912 151.296 53.394C151.378 53.3936 151.457 53.4214 151.521 53.4725C151.585 53.5236 151.63 53.5951 151.647 53.675L152.911 58.311H152.915ZM145.962 59.435H143.785C143.504 59.435 143.293 59.365 143.293 59.014V53.957C143.29 53.9009 143.299 53.8448 143.319 53.7923C143.339 53.7399 143.37 53.6922 143.41 53.6525C143.449 53.6128 143.497 53.5819 143.55 53.5618C143.602 53.5417 143.658 53.5329 143.714 53.536H145.962C146.05 53.5427 146.133 53.5824 146.193 53.6473C146.253 53.7122 146.287 53.7974 146.287 53.886C146.287 53.9745 146.253 54.0597 146.193 54.1246C146.133 54.1895 146.05 54.2293 145.962 54.236H143.995V56.203H145.821C145.912 56.2089 145.998 56.2477 146.063 56.3123C146.127 56.3769 146.166 56.4628 146.172 56.554C146.175 56.6008 146.168 56.6477 146.151 56.6915C146.134 56.7353 146.109 56.7751 146.076 56.8083C146.042 56.8415 146.003 56.8672 145.959 56.8839C145.915 56.9005 145.868 56.9077 145.821 56.905H143.995V58.872H146.032C146.172 58.872 146.383 59.013 146.383 59.153C146.347 59.2348 146.288 59.3046 146.213 59.3544C146.139 59.4041 146.052 59.4317 145.962 59.434V59.435ZM144.979 51.85C145.119 51.71 145.119 51.639 145.26 51.639C145.333 51.6435 145.402 51.6745 145.454 51.7263C145.506 51.778 145.537 51.8469 145.541 51.92C145.541 51.99 145.541 51.99 145.471 52.061L144.771 52.761C144.738 52.8039 144.695 52.8389 144.647 52.8633C144.598 52.8877 144.545 52.9009 144.49 52.902C144.417 52.8975 144.348 52.8664 144.296 52.8147C144.245 52.7629 144.214 52.694 144.209 52.621C144.209 52.551 144.209 52.551 144.279 52.48L144.979 51.848V51.85ZM139.501 54.168H138.377C138.33 54.1707 138.283 54.1635 138.24 54.1469C138.196 54.1302 138.156 54.1045 138.123 54.0713C138.09 54.0381 138.064 53.9983 138.047 53.9545C138.031 53.9107 138.023 53.8638 138.026 53.817C138.032 53.7258 138.071 53.6399 138.136 53.5753C138.2 53.5107 138.286 53.4719 138.377 53.466H141.327C141.415 53.4726 141.498 53.5124 141.558 53.5773C141.618 53.6422 141.652 53.7275 141.652 53.816C141.652 53.9045 141.618 53.9897 141.558 54.0546C141.498 54.1195 141.415 54.1593 141.327 54.166H140.133V59.153C140.127 59.2441 140.088 59.33 140.024 59.3946C139.959 59.4592 139.873 59.4981 139.782 59.504C139.735 59.5067 139.689 59.4995 139.645 59.4829C139.601 59.4662 139.561 59.4405 139.528 59.4073C139.495 59.3742 139.469 59.3343 139.452 59.2905C139.436 59.2467 139.428 59.1998 139.431 59.153V54.166L139.501 54.168ZM133.882 59.225C133.852 59.2976 133.804 59.3614 133.743 59.4105C133.681 59.4596 133.609 59.4924 133.531 59.506C133.484 59.5087 133.437 59.5016 133.394 59.4849C133.35 59.4682 133.31 59.4425 133.277 59.4093C133.244 59.3761 133.218 59.3363 133.201 59.2925C133.185 59.2486 133.177 59.2018 133.18 59.155V59.015L134.795 53.888C134.865 53.6073 135.006 53.467 135.216 53.467C135.497 53.467 135.567 53.678 135.637 53.888L137.252 59.015V59.155C137.255 59.2018 137.248 59.2486 137.231 59.2925C137.214 59.3363 137.189 59.3761 137.156 59.4093C137.122 59.4425 137.083 59.4682 137.039 59.4849C136.995 59.5016 136.948 59.5087 136.901 59.506C136.819 59.5063 136.74 59.4786 136.676 59.4274C136.612 59.3763 136.568 59.3049 136.55 59.225L136.199 58.101H134.092L133.881 59.225H133.882ZM134.444 57.469H136.13L135.287 54.66L134.444 57.469V57.469ZM124.611 57.329V55.573C124.576 55.3055 124.599 55.0335 124.679 54.7758C124.759 54.5182 124.894 54.281 125.074 54.0806C125.255 53.8802 125.477 53.7215 125.725 53.6154C125.973 53.5092 126.242 53.4583 126.511 53.466C127.911 53.466 128.411 54.449 128.411 55.573V57.329C128.446 57.5963 128.422 57.868 128.342 58.1254C128.262 58.3827 128.127 58.6197 127.946 58.8199C127.766 59.0201 127.544 59.1788 127.296 59.2852C127.049 59.3915 126.781 59.443 126.511 59.436C125.317 59.506 124.611 58.523 124.611 57.329ZM125.311 55.573V57.329C125.311 58.172 125.732 58.804 126.575 58.804C127.418 58.804 127.839 58.172 127.839 57.329V55.573C127.839 54.66 127.488 54.098 126.575 54.098C125.662 54.098 125.311 54.73 125.311 55.573ZM120.746 59.436H119.833C119.724 59.4285 119.621 59.3817 119.544 59.3044C119.466 59.227 119.42 59.1241 119.412 59.015V53.958C119.42 53.8488 119.466 53.746 119.544 53.6686C119.621 53.5912 119.724 53.5444 119.833 53.537H120.746C121.039 53.4925 121.339 53.5151 121.622 53.6031C121.905 53.6911 122.165 53.8421 122.381 54.045C122.598 54.2478 122.765 54.4971 122.872 54.774C122.978 55.051 123.02 55.3484 122.994 55.644V57.189C123.064 58.383 122.502 59.437 120.746 59.437V59.436ZM122.361 55.643C122.384 55.4437 122.362 55.2418 122.296 55.0524C122.23 54.8629 122.122 54.6909 121.98 54.549C121.838 54.4072 121.666 54.2992 121.477 54.2332C121.287 54.1673 121.085 54.1449 120.886 54.168H120.037V58.733H120.88C121.085 58.7544 121.293 58.7285 121.486 58.6574C121.68 58.5862 121.855 58.4717 121.997 58.3225C122.139 58.1733 122.246 57.9935 122.308 57.7968C122.37 57.6001 122.386 57.3919 122.355 57.188V55.634L122.361 55.643ZM116.672 59.295L114.284 54.87V59.154C114.278 59.2422 114.238 59.3247 114.173 59.3849C114.108 59.4451 114.023 59.4785 113.934 59.4785C113.846 59.4785 113.76 59.4451 113.696 59.3849C113.631 59.3247 113.591 59.2422 113.584 59.154V53.816C113.581 53.7692 113.589 53.7223 113.605 53.6784C113.622 53.6346 113.648 53.5948 113.681 53.5616C113.714 53.5285 113.754 53.5027 113.798 53.4861C113.842 53.4694 113.888 53.4622 113.935 53.465C114.008 53.4637 114.079 53.4828 114.141 53.5201C114.203 53.5574 114.253 53.6114 114.286 53.676L116.674 58.101V53.817C116.671 53.7688 116.677 53.7204 116.693 53.6747C116.709 53.6291 116.734 53.5873 116.767 53.5518C116.8 53.5164 116.839 53.4881 116.884 53.4688C116.928 53.4495 116.976 53.4395 117.024 53.4395C117.073 53.4395 117.12 53.4495 117.165 53.4688C117.209 53.4881 117.249 53.5164 117.282 53.5518C117.314 53.5873 117.34 53.6291 117.356 53.6747C117.371 53.7204 117.378 53.7688 117.374 53.817V59.155C117.377 59.2018 117.37 59.2486 117.353 59.2925C117.336 59.3363 117.311 59.3761 117.278 59.4093C117.244 59.4425 117.205 59.4682 117.161 59.4849C117.117 59.5016 117.07 59.5087 117.023 59.506C116.951 59.5072 116.879 59.4882 116.817 59.4509C116.755 59.4136 116.705 59.3595 116.672 59.295V59.295ZM109.789 59.506C109.534 59.5157 109.28 59.4701 109.044 59.3724C108.808 59.2747 108.596 59.1272 108.422 58.9399C108.249 58.7526 108.118 58.53 108.038 58.2874C107.958 58.0447 107.932 57.7877 107.961 57.534V53.812C107.958 53.7652 107.966 53.7183 107.982 53.6744C107.999 53.6306 108.025 53.5908 108.058 53.5576C108.091 53.5245 108.131 53.4987 108.175 53.4821C108.218 53.4654 108.265 53.4582 108.312 53.461C108.403 53.4669 108.489 53.5057 108.554 53.5703C108.618 53.6349 108.657 53.7208 108.663 53.812V57.534C108.663 58.307 109.014 58.868 109.857 58.868C110.027 58.8708 110.195 58.837 110.351 58.769C110.507 58.701 110.646 58.6003 110.759 58.4738C110.872 58.3472 110.957 58.1978 111.007 58.0357C111.058 57.8735 111.073 57.7024 111.051 57.534V53.812C111.048 53.7638 111.054 53.7154 111.07 53.6697C111.086 53.6241 111.111 53.5823 111.144 53.5468C111.177 53.5114 111.216 53.4831 111.261 53.4638C111.305 53.4445 111.353 53.4345 111.401 53.4345C111.45 53.4345 111.497 53.4445 111.542 53.4638C111.586 53.4831 111.626 53.5114 111.659 53.5468C111.691 53.5823 111.717 53.6241 111.733 53.6697C111.749 53.7154 111.755 53.7638 111.751 53.812V57.534C111.74 58.0523 111.53 58.5464 111.163 58.913C110.797 59.2795 110.303 59.4902 109.784 59.501L109.789 59.506ZM105.996 59.155C105.99 59.2461 105.951 59.332 105.887 59.3966C105.822 59.4612 105.736 59.5001 105.645 59.506C105.598 59.5087 105.551 59.5016 105.508 59.4849C105.464 59.4682 105.424 59.4425 105.391 59.4093C105.358 59.3761 105.332 59.3363 105.315 59.2925C105.299 59.2486 105.291 59.2018 105.294 59.155V55.081L103.959 57.961C103.925 58.0235 103.874 58.0756 103.812 58.1119C103.751 58.1482 103.681 58.1673 103.609 58.1673C103.538 58.1673 103.468 58.1482 103.406 58.1119C103.344 58.0756 103.294 58.0235 103.259 57.961L101.925 55.081V59.155C101.929 59.2032 101.923 59.2516 101.907 59.2972C101.891 59.3428 101.865 59.3847 101.833 59.4201C101.8 59.4555 101.76 59.4838 101.716 59.5031C101.671 59.5225 101.624 59.5324 101.575 59.5324C101.527 59.5324 101.479 59.5225 101.435 59.5031C101.39 59.4838 101.351 59.4555 101.318 59.4201C101.285 59.3847 101.26 59.3428 101.244 59.2972C101.228 59.2516 101.222 59.2032 101.225 59.155V53.817C101.222 53.7701 101.23 53.7233 101.246 53.6794C101.263 53.6356 101.289 53.5958 101.322 53.5626C101.355 53.5295 101.395 53.5037 101.439 53.4871C101.483 53.4704 101.529 53.4632 101.576 53.466C101.649 53.4647 101.72 53.4838 101.782 53.5211C101.844 53.5584 101.894 53.6124 101.927 53.677L103.542 57.189L105.157 53.677C105.19 53.6124 105.24 53.5584 105.302 53.5211C105.364 53.4838 105.436 53.4647 105.508 53.466C105.555 53.4632 105.602 53.4704 105.646 53.4871C105.69 53.5037 105.729 53.5295 105.763 53.5626C105.796 53.5958 105.821 53.6356 105.838 53.6794C105.855 53.7233 105.862 53.7701 105.859 53.817V59.155H105.996ZM92.3702 57.329V55.573C92.3348 55.3055 92.3578 55.0335 92.4378 54.7758C92.5178 54.5182 92.6528 54.281 92.8335 54.0806C93.0142 53.8802 93.2362 53.7215 93.4843 53.6154C93.7323 53.5092 94.0005 53.4583 94.2702 53.466C95.6702 53.466 96.1702 54.449 96.1702 55.573V57.329C96.2049 57.5963 96.1814 57.868 96.1011 58.1254C96.0209 58.3827 95.8858 58.6197 95.7053 58.8199C95.5247 59.0201 95.303 59.1788 95.0553 59.2852C94.8075 59.3915 94.5397 59.443 94.2702 59.436C93.0062 59.506 92.3702 58.523 92.3702 57.329ZM93.0702 55.573V57.329C93.0702 58.172 93.4912 58.804 94.3342 58.804C95.1772 58.804 95.5982 58.172 95.5982 57.329V55.573C95.5982 54.66 95.2472 54.098 94.3342 54.098C93.4212 54.098 93.0702 54.73 93.0702 55.573ZM83.6582 57.329V55.573C83.6227 55.3055 83.6458 55.0335 83.7258 54.7758C83.8058 54.5182 83.9408 54.281 84.1215 54.0806C84.3022 53.8802 84.5242 53.7215 84.7723 53.6154C85.0204 53.5092 85.2885 53.4583 85.5582 53.466C86.9582 53.466 87.4582 54.449 87.4582 55.573V57.329C87.493 57.5963 87.4694 57.868 87.3891 58.1254C87.3089 58.3827 87.1739 58.6197 86.9933 58.8199C86.8128 59.0201 86.591 59.1788 86.3432 59.2852C86.0955 59.3915 85.8277 59.443 85.5582 59.436C84.2942 59.506 83.6582 58.523 83.6582 57.329ZM84.2902 55.573V57.329C84.2902 58.172 84.7112 58.804 85.5542 58.804C86.3972 58.804 86.8182 58.172 86.8182 57.329V55.573C86.8182 54.66 86.4672 54.098 85.5542 54.098C84.6412 54.098 84.2902 54.73 84.2902 55.573ZM79.7902 59.436H78.8772C78.768 59.4285 78.6652 59.3817 78.5878 59.3044C78.5104 59.227 78.4637 59.1241 78.4562 59.015V53.958C78.4637 53.8488 78.5104 53.746 78.5878 53.6686C78.6652 53.5912 78.768 53.5444 78.8772 53.537H79.7902C80.0834 53.4926 80.3828 53.5154 80.6659 53.6034C80.949 53.6915 81.2085 53.8426 81.4248 54.0454C81.6411 54.2483 81.8086 54.4975 81.9146 54.7744C82.0207 55.0512 82.0626 55.3485 82.0372 55.644V57.189C82.0722 57.4926 82.0381 57.8001 81.9376 58.0887C81.8371 58.3773 81.6726 58.6395 81.4566 58.8556C81.2405 59.0717 80.9785 59.2363 80.6899 59.3369C80.4014 59.4376 80.0938 59.4718 79.7902 59.437V59.436ZM81.4052 55.643C81.4282 55.4437 81.4059 55.2418 81.3399 55.0524C81.274 54.8629 81.166 54.6909 81.0241 54.549C80.8823 54.4072 80.7102 54.2992 80.5208 54.2332C80.3313 54.1673 80.1295 54.1449 79.9302 54.168H79.0872V58.733H79.9302C80.1353 58.7544 80.3426 58.7285 80.5362 58.6574C80.7298 58.5862 80.9045 58.4717 81.0469 58.3225C81.1893 58.1733 81.2956 57.9935 81.3578 57.7968C81.4199 57.6001 81.4361 57.3919 81.4052 57.188V55.634V55.643ZM75.6462 59.295L73.2582 54.87V59.154C73.2619 59.2021 73.2555 59.2506 73.2396 59.2962C73.2237 59.3418 73.1984 59.3837 73.1656 59.4191C73.1327 59.4545 73.0929 59.4828 73.0486 59.5021C73.0043 59.5215 72.9565 59.5314 72.9082 59.5314C72.8598 59.5314 72.8121 59.5215 72.7678 59.5021C72.7235 59.4828 72.6836 59.4545 72.6508 59.4191C72.6179 59.3837 72.5927 59.3418 72.5768 59.2962C72.5609 59.2506 72.5546 59.2021 72.5582 59.154V53.816C72.5554 53.7692 72.5626 53.7223 72.5793 53.6784C72.5959 53.6346 72.6217 53.5948 72.6549 53.5616C72.688 53.5285 72.7279 53.5027 72.7717 53.4861C72.8155 53.4694 72.8624 53.4622 72.9092 53.465C72.9816 53.4637 73.053 53.4828 73.115 53.5201C73.1771 53.5574 73.2274 53.6114 73.2602 53.676L75.6482 58.101V53.817C75.6446 53.7688 75.6509 53.7204 75.6668 53.6747C75.6828 53.6291 75.708 53.5873 75.7408 53.5518C75.7737 53.5164 75.8135 53.4881 75.8578 53.4688C75.902 53.4495 75.9499 53.4395 75.9982 53.4395C76.0465 53.4395 76.0944 53.4495 76.1386 53.4688C76.1829 53.4881 76.2227 53.5164 76.2556 53.5518C76.2884 53.5873 76.3136 53.6291 76.3296 53.6747C76.3455 53.7204 76.3518 53.7688 76.3482 53.817V59.155C76.3509 59.2018 76.3438 59.2486 76.3271 59.2925C76.3105 59.3363 76.2847 59.3761 76.2516 59.4093C76.2184 59.4425 76.1786 59.4682 76.1347 59.4849C76.0909 59.5016 76.044 59.5087 75.9972 59.506C75.9248 59.5072 75.8535 59.4882 75.7914 59.4509C75.7293 59.4136 75.679 59.3595 75.6462 59.295V59.295ZM67.4282 59.225C67.3981 59.2976 67.3501 59.3614 67.2887 59.4105C67.2274 59.4596 67.1546 59.4924 67.0772 59.506C67.0304 59.5087 66.9835 59.5016 66.9397 59.4849C66.8958 59.4682 66.856 59.4425 66.8228 59.4093C66.7897 59.3761 66.7639 59.3363 66.7473 59.2925C66.7306 59.2486 66.7235 59.2018 66.7262 59.155V59.015L68.3412 53.888C68.4112 53.6073 68.5515 53.467 68.7622 53.467C69.0432 53.467 69.1132 53.678 69.1832 53.888L70.7982 59.015V59.155C70.801 59.2018 70.7938 59.2486 70.7771 59.2925C70.7605 59.3363 70.7347 59.3761 70.7016 59.4093C70.6684 59.4425 70.6286 59.4682 70.5847 59.4849C70.5409 59.5016 70.494 59.5087 70.4472 59.506C70.3654 59.5063 70.2859 59.4786 70.2221 59.4274C70.1582 59.3763 70.1138 59.3049 70.0962 59.225L69.7452 58.101H67.6382L67.4272 59.225H67.4282ZM67.9902 57.469H69.6762L68.8332 54.66L67.9902 57.469V57.469ZM64.0572 58.312L65.4572 53.676C65.4873 53.6034 65.5353 53.5396 65.5966 53.4904C65.658 53.4413 65.7308 53.4085 65.8082 53.395C65.855 53.3922 65.9019 53.3994 65.9457 53.416C65.9895 53.4327 66.0294 53.4585 66.0625 53.4916C66.0957 53.5248 66.1214 53.5646 66.1381 53.6084C66.1548 53.6523 66.162 53.6992 66.1592 53.746V53.887L64.5442 59.014C64.4742 59.2946 64.3339 59.435 64.1232 59.435C63.9122 59.435 63.7722 59.224 63.7022 59.014L62.0872 53.887V53.746C62.0844 53.6992 62.0916 53.6523 62.1083 53.6084C62.125 53.5646 62.1507 53.5248 62.1839 53.4916C62.217 53.4585 62.2569 53.4327 62.3007 53.416C62.3445 53.3994 62.3914 53.3922 62.4382 53.395C62.52 53.3946 62.5994 53.4224 62.6633 53.4735C62.7272 53.5246 62.7716 53.5961 62.7892 53.676L64.0532 58.312H64.0572ZM60.3372 59.434H58.1602C57.8792 59.434 57.6682 59.364 57.6682 59.013V53.956C57.6652 53.8999 57.674 53.8438 57.6941 53.7914C57.7141 53.7389 57.745 53.6913 57.7848 53.6516C57.8245 53.6118 57.8721 53.5809 57.9246 53.5608C57.977 53.5407 58.0331 53.5319 58.0892 53.535H60.3372C60.3854 53.5313 60.4338 53.5377 60.4794 53.5536C60.525 53.5695 60.5669 53.5947 60.6023 53.6276C60.6378 53.6605 60.6661 53.7002 60.6854 53.7445C60.7047 53.7888 60.7147 53.8367 60.7147 53.885C60.7147 53.9333 60.7047 53.9811 60.6854 54.0254C60.6661 54.0697 60.6378 54.1095 60.6023 54.1424C60.5669 54.1752 60.525 54.2004 60.4794 54.2163C60.4338 54.2323 60.3854 54.2386 60.3372 54.235H58.3702V56.202H60.1962C60.2874 56.2078 60.3732 56.2467 60.4378 56.3113C60.5024 56.3759 60.5413 56.4618 60.5472 56.553C60.55 56.5998 60.5428 56.6467 60.5261 56.6905C60.5094 56.7343 60.4837 56.7742 60.4505 56.8073C60.4174 56.8405 60.3775 56.8662 60.3337 56.8829C60.2899 56.8995 60.243 56.9067 60.1962 56.904H58.3702V58.871H60.4072C60.5472 58.871 60.7582 59.012 60.7582 59.152C60.6222 59.29 60.4822 59.434 60.3372 59.434Z" fill="white"/>
</g>
<defs>
<clipPath id="clip0_101_2">
<rect width="169.908" height="64.498" fill="white"/>
</clipPath>
</defs>
</svg>
